<svg width="170" height="155" viewBox="0 0 170 155" fill="none" xmlns="http://www.w3.org/2000/svg">
<path d="M148.908 147.89C146.054 147.86 143.571 147.852 141.408 147.858C140.614 147.86 139.863 147.865 139.153 147.871L125.908 148C121.908 142.5 121.408 142 111.714 124.872C105.816 113.537 100.709 104.983 98.9083 102C94.2088 94.2127 90.4083 87 85.4083 83.5C83.9083 82.1243 83.4083 82.5 97.9083 82.5C115.537 82.8757 121.39 76.1507 119.892 63.921C118.356 51.3898 112.863 48.2052 92.7851 48.2052H78.7841V80C74.4083 77.5 69.9083 75.8333 68.9083 75.5C66.787 74.7929 63.9083 74 58.6399 73C58.6399 45 58.0438 40.8083 58.2753 27.5C91.7754 27.5 110.122 27.0246 119.261 30.2281C143.975 38.8775 150.099 77.7619 129.323 94.109C121.701 100.101 113.717 87.4815 130.416 114.63C135.214 122.429 137.176 126.104 138.271 127.792C138.479 128.104 138.649 128.342 138.806 128.523C140.807 128.523 141.765 128.339 142.188 128.168C142.247 127.685 142.824 127.911 142.188 128.168C142.167 128.342 142.213 128.609 142.408 129C147.408 139 146.408 127.5 146.408 110.5C146.408 103.651 146.496 98.9352 146.717 95.6314C147.824 91.0461 150.708 87.9833 154.932 83.0947C159.691 77.6017 163.064 72.495 165.768 66.7194C169.706 58.3244 169.706 58.3244 169.574 102.787C169.508 127.237 169.15 147.532 168.792 147.89C165.908 148 159.78 148.002 148.908 147.89Z" fill="#263A54"/>
<path d="M33.4084 145.5C17.2498 140.497 6.37637 131.769 4.06799 118.804C3.79923 116.736 3.56591 115.147 3.51929 113.926L23.6841 111.5C24.1637 112.395 24.7345 113.772 26.0965 115.883C30.4084 122 30.9084 122.5 36.2063 125.041C54.8901 133.031 75.788 124.646 71.0393 111.059C68.6933 104.36 64.623 102.014 43.1597 95.0324C13.8386 85.4785 6.36695 78.9585 5.50013 62.1309C4.47313 42.373 17.645 29.2011 39.862 27.769C52.0729 26.9775 49.7754 27.5234 49.7754 38.5C49.7754 47.2907 52.4027 47.018 44.5259 47.442C34.9155 47.9602 29.7994 50.6172 27.915 56.082C25.013 64.5335 29.5073 67.9442 53.5993 75.5289C63.4075 78.6193 73.6681 82.4164 76.391 83.9521C91.5909 92.5607 96.2087 109.921 91.4164 124.5C86.4084 133.5 80.8809 140.103 69.9084 144C64.7575 141.618 62.4246 147.783 52.9084 148C41.1498 146.253 45.4084 148 33.4084 145.5Z" fill="#263A54"/>
<path d="M147.275 29.5C147.558 29.5 150.731 30.2186 153.275 31.5C157.892 33.846 158.734 34.3461 163.275 32C170.464 28.2783 169.433 26.9021 169.075 39.6124C168.698 53.0669 162.903 67.9065 154.358 77.3002C151.917 79.9949 149.392 82.1714 148.742 82.1525C147.828 82.1337 147.564 76.1036 147.564 55.2717C147.564 40.498 147.002 29.5 147.275 29.5Z" fill="#263A54"/>
<path d="M58.4084 105.976C58.4084 105.713 58.6216 105.5 58.8846 105.5H59.9084C64.6029 105.5 68.4084 109.306 68.4084 114V114C68.4084 118.694 64.6029 122.5 59.9084 122.5H58.8846C58.6216 122.5 58.4084 122.287 58.4084 122.024V105.976Z" fill="#263A54"/>
<path d="M91.4085 124.5C88.9084 132.5 83.182 139.864 73.892 144.129C64.602 148.395 53.0278 149.657 41.6758 147.643C30.3238 145.629 20.1078 140.501 13.2401 133.368C6.37244 126.236 5.40845 124.5 3.90849 114L23.9085 111.5C23.0723 115.815 26.0345 121.801 29.6763 125.583C33.3181 129.366 38.7354 132.085 44.7552 133.153C50.7749 134.221 56.9125 133.552 61.8388 131.29C66.7651 129.028 70.0835 125.355 71.0756 121.068L91.4085 124.5Z" fill="#263A54"/>
<path d="M134.431 85.8231C134.815 86.3111 134.825 87.0789 134.46 88.0476C134.095 89.0164 133.368 90.1512 132.354 91.3358C131.34 92.5204 130.076 93.712 128.69 94.7886C127.305 95.8651 125.848 96.7877 124.469 97.4619C123.091 98.136 121.84 98.5374 120.846 98.6248C119.851 98.7123 119.149 98.4826 118.81 97.9595C118.472 97.4363 118.51 96.6384 118.92 95.6477C119.329 94.6569 120.097 93.509 121.143 92.3216L124.292 92.1023C123.843 92.6112 123.514 93.1033 123.339 93.528C123.163 93.9526 123.147 94.2946 123.292 94.5189C123.437 94.7431 123.738 94.8415 124.164 94.8041C124.591 94.7666 125.127 94.5945 125.718 94.3056C126.308 94.0166 126.933 93.6211 127.527 93.1597C128.121 92.6983 128.663 92.1875 129.097 91.6798C129.532 91.172 129.843 90.6856 130 90.2704C130.156 89.8551 130.152 89.526 129.987 89.3168L134.431 85.8231Z" fill="#263A54"/>
<rect x="136.408" y="127.5" width="13" height="6" fill="#263A54"/>
<path d="M146.408 91.5C151.266 87.4932 153.694 84.7186 157.908 79.5L151.408 129.5H146.408V91.5Z" fill="#263A54"/>
<path d="M161.775 74C165.099 68.9661 166.775 64.5 169.408 57V61.5V147.9H167.408L161.775 74Z" fill="#263A54"/>
<path d="M146.275 28.5L157.775 32.5L161.275 67.5C156.599 75.7175 153.222 79.5621 146.275 85.5V28.5Z" fill="#263A54"/>
<path d="M157.775 32.5L169.375 28.5V44.5C167.92 50.8212 166.946 54.242 164.775 60L158.275 44.5L157.775 32.5Z" fill="#263A54"/>
<path d="M32.5133 49.3323L27.1803 30.1951C35.3472 27.9192 43.8235 26.9916 52.2753 27.442L52.2753 47.3463C45.6262 46.8703 38.9412 47.541 32.5133 49.3323Z" fill="#263A54"/>
<path d="M169.275 13.5L158.775 18.5V29.5L169.275 25.5V13.5Z" fill="#263A54"/>
<path d="M169.275 13.5L158.775 18.5V29.5L169.275 25.5V13.5Z" fill="#263A54"/>
<path d="M146.275 13.5L156.775 18.5V29.5L146.275 25.5V13.5Z" fill="#263A54"/>
<path d="M146.275 13.5L156.775 18.5V29.5L146.275 25.5V13.5Z" fill="#263A54"/>
<path d="M146.275 11.5L157.775 6L169.275 11.5L157.775 17L146.275 11.5Z" fill="#263A54"/>
</svg>
